<?xml version="1.0" encoding="UTF-8" ?>
<!DOCTYPE svg PUBLIC "-//W3C//DTD SVG 1.1//EN" "http://www.w3.org/Graphics/SVG/1.1/DTD/svg11.dtd">
<svg width="683pt" height="570pt" viewBox="0 0 683 570" version="1.1" xmlns="http://www.w3.org/2000/svg">
<g id="#ffffffff">
<path fill="#ffffff" opacity="1.00" d=" M 0.00 0.00 L 683.00 0.00 L 683.00 570.00 L 0.00 570.00 L 0.00 0.00 M 203.10 4.06 C 204.11 11.39 203.57 19.23 199.63 25.68 C 196.15 32.29 189.30 36.05 185.12 42.12 C 180.97 47.48 179.34 54.59 180.70 61.23 C 179.18 60.55 177.50 59.96 176.46 58.58 C 174.34 56.20 174.65 52.74 173.10 50.06 C 169.48 52.79 168.44 57.71 168.08 61.99 C 167.63 68.05 170.76 73.40 173.12 78.73 C 167.15 80.88 161.33 83.50 155.92 86.83 C 149.69 82.49 143.22 78.18 135.78 76.26 C 128.41 74.24 120.57 72.16 112.95 73.99 C 111.24 74.64 108.07 76.27 109.51 78.50 C 115.61 89.39 121.74 100.27 127.84 111.17 C 128.28 112.22 129.41 113.44 128.61 114.60 C 126.32 119.39 123.80 124.11 122.41 129.27 C 121.67 131.10 121.56 133.57 119.55 134.53 C 107.62 141.48 98.80 154.11 97.75 168.04 C 96.80 176.95 98.13 185.93 101.02 194.37 C 93.77 194.83 86.64 196.93 80.18 200.20 C 78.70 200.80 79.14 202.51 79.00 203.76 C 81.23 203.94 83.50 203.82 85.70 204.32 C 88.20 205.20 90.15 207.09 92.17 208.73 C 80.49 207.16 69.65 213.78 61.82 221.86 C 60.63 222.72 61.35 224.15 61.53 225.29 C 65.21 225.64 68.97 226.06 72.40 227.53 C 83.72 233.23 91.46 243.73 98.22 254.09 C 92.85 278.62 88.86 303.43 84.01 328.07 C 76.50 367.45 69.00 406.84 61.52 446.22 C 60.74 450.46 60.65 454.78 60.65 459.08 C 60.75 467.29 62.07 475.49 64.68 483.29 C 47.02 488.79 29.59 495.36 13.42 504.42 C 9.89 506.70 5.68 508.65 3.57 512.48 C 1.38 516.88 3.14 522.23 6.41 525.59 C 9.40 528.65 13.95 529.05 18.00 528.99 C 43.67 528.31 69.35 528.25 95.02 527.45 C 97.54 527.51 100.60 526.78 102.47 528.98 C 102.91 533.12 101.95 538.66 97.54 540.30 C 93.85 541.00 89.80 541.22 86.87 543.89 C 83.16 546.58 82.54 551.65 83.48 555.84 C 84.35 560.76 89.18 564.38 94.05 564.52 C 103.72 565.05 113.39 565.88 123.08 565.98 C 132.19 565.72 141.17 560.13 144.78 551.65 C 146.60 547.68 147.05 543.28 147.90 539.04 C 203.06 539.02 258.23 538.85 313.38 539.13 C 313.14 551.58 323.16 563.86 335.97 564.17 C 346.31 563.97 356.65 563.64 366.99 563.14 C 370.76 562.70 374.60 560.54 375.95 556.81 C 377.75 551.83 377.34 545.51 373.27 541.73 C 370.76 538.99 366.75 539.51 363.54 538.37 C 362.38 537.75 360.81 536.98 361.25 535.41 C 365.10 533.92 369.08 532.73 372.74 530.78 C 375.67 529.35 378.53 527.19 381.97 527.55 C 407.65 528.06 433.33 528.45 459.00 528.98 C 462.16 528.97 465.52 528.95 468.37 527.38 C 470.35 526.42 471.55 524.48 473.27 523.19 C 479.95 524.37 486.60 525.74 493.31 526.78 C 514.35 529.54 535.81 529.74 556.81 526.53 C 602.55 518.94 645.03 488.62 663.68 445.68 C 669.16 433.87 671.52 421.01 674.31 408.39 C 678.65 388.65 681.27 368.20 678.66 348.03 C 677.64 342.29 676.38 336.47 673.70 331.25 C 673.20 329.92 670.74 329.85 670.48 331.43 C 668.57 338.03 666.92 344.76 663.71 350.89 C 659.86 338.43 653.97 326.71 647.62 315.36 C 638.29 299.92 626.81 285.56 612.56 274.39 C 590.48 258.99 561.97 252.84 535.61 258.78 C 517.03 263.09 499.37 272.26 486.01 286.00 C 475.02 296.87 466.94 310.47 461.83 325.01 C 462.95 325.38 464.23 326.39 465.36 325.39 C 472.66 320.63 479.89 315.48 488.17 312.51 C 483.60 319.77 477.92 326.31 473.89 333.92 C 464.37 351.00 459.24 371.33 463.28 390.77 C 465.08 400.85 470.98 409.88 478.62 416.55 C 475.61 417.06 472.65 417.81 469.76 418.79 C 453.08 424.82 438.66 435.79 426.40 448.43 C 423.81 451.04 421.61 454.03 418.80 456.42 C 418.59 455.38 418.40 454.34 418.22 453.31 C 418.04 446.21 416.27 439.28 414.37 432.48 C 402.11 392.73 389.99 352.94 377.69 313.21 C 371.15 291.01 364.42 268.85 357.25 246.85 C 356.76 244.93 355.51 242.73 356.99 240.92 C 363.70 229.75 370.91 218.43 381.27 210.26 C 384.34 207.65 388.26 206.51 391.83 204.79 C 391.87 204.13 391.93 202.81 391.96 202.15 C 382.23 195.83 370.03 192.40 358.67 196.18 C 360.61 191.99 364.57 189.66 368.94 188.73 C 368.82 187.68 368.69 186.64 368.56 185.59 C 363.06 184.62 357.46 184.26 351.88 184.16 C 354.49 173.36 354.80 161.70 350.87 151.18 C 345.68 137.80 333.55 127.45 319.50 124.45 C 316.45 117.18 312.44 110.41 307.73 104.11 C 315.52 91.34 323.53 78.71 331.20 65.87 C 325.66 63.04 319.55 65.56 314.06 67.16 C 303.40 71.02 292.75 75.17 283.07 81.15 C 281.93 81.66 280.82 83.04 279.48 82.30 C 274.62 80.20 269.67 78.32 264.56 76.94 C 268.97 63.86 268.26 48.41 259.85 37.08 C 258.99 35.53 256.23 36.39 256.53 38.18 C 256.83 43.42 256.04 48.90 252.55 53.03 C 253.05 43.80 248.18 35.42 242.26 28.74 C 232.43 17.82 219.82 9.91 207.08 2.83 C 205.66 1.82 202.85 1.60 203.10 4.06 Z" />
</g>
<g id="#32333aff">
<path fill="#32333a" opacity="1.00" d=" M 203.10 4.06 C 202.85 1.60 205.66 1.82 207.08 2.83 C 219.82 9.91 232.43 17.82 242.26 28.74 C 248.18 35.42 253.05 43.80 252.55 53.03 C 256.04 48.90 256.83 43.42 256.53 38.18 C 256.23 36.39 258.99 35.53 259.85 37.08 C 268.26 48.41 268.97 63.86 264.56 76.94 C 269.67 78.32 274.62 80.20 279.48 82.30 C 280.82 83.04 281.93 81.66 283.07 81.15 C 292.75 75.17 303.40 71.02 314.06 67.16 C 319.55 65.56 325.66 63.04 331.20 65.87 C 323.53 78.71 315.52 91.34 307.73 104.11 C 312.44 110.41 316.45 117.18 319.50 124.45 C 333.55 127.45 345.68 137.80 350.87 151.18 C 354.80 161.70 354.49 173.36 351.88 184.16 C 357.46 184.26 363.06 184.62 368.56 185.59 C 368.69 186.64 368.82 187.68 368.94 188.73 C 364.57 189.66 360.61 191.99 358.67 196.18 C 370.03 192.40 382.23 195.83 391.96 202.15 C 391.93 202.81 391.87 204.13 391.83 204.79 C 388.26 206.51 384.34 207.65 381.27 210.26 C 370.91 218.43 363.70 229.75 356.99 240.92 C 355.51 242.73 356.76 244.93 357.25 246.85 C 364.42 268.85 371.15 291.01 377.69 313.21 C 389.99 352.94 402.11 392.73 414.37 432.48 C 416.27 439.28 418.04 446.21 418.22 453.31 C 416.96 453.03 415.69 452.75 414.43 452.48 C 414.21 450.22 413.85 447.99 413.45 445.76 C 412.54 440.38 411.18 435.09 409.51 429.89 C 395.52 385.00 382.03 339.96 367.84 295.14 C 363.24 279.59 357.98 264.23 353.84 248.56 C 352.69 248.97 351.55 249.39 350.41 249.79 C 351.96 243.01 355.45 236.89 358.91 230.92 C 365.25 219.93 373.63 209.84 384.46 203.04 C 377.16 199.57 368.36 197.09 360.59 200.52 C 356.37 202.14 354.14 206.32 351.83 209.91 C 351.06 209.88 349.50 209.81 348.73 209.78 C 348.38 205.61 350.65 201.96 352.43 198.38 C 354.35 194.57 357.00 191.20 359.83 188.03 C 356.76 187.73 353.69 187.49 350.61 187.33 C 348.31 191.86 345.15 196.24 340.32 198.29 C 334.02 201.35 326.75 200.54 320.02 199.82 C 312.20 199.00 304.12 198.94 296.50 201.13 C 299.59 202.65 302.88 203.66 306.05 204.97 C 291.95 201.19 277.33 198.83 262.69 199.95 C 262.70 199.21 262.70 197.73 262.70 196.98 C 267.73 196.94 272.78 196.93 277.76 197.78 C 269.71 188.98 268.64 176.39 268.76 165.02 C 268.73 152.33 275.25 139.97 285.53 132.58 C 293.76 126.01 304.55 123.39 314.95 123.78 C 307.81 107.52 294.77 93.85 278.64 86.35 C 273.70 83.80 268.38 82.15 263.12 80.43 C 261.67 82.99 260.42 85.90 257.69 87.35 C 258.63 82.81 261.13 78.82 262.36 74.37 C 265.21 65.05 264.45 54.83 260.71 45.87 C 257.84 51.98 254.58 60.16 246.93 61.05 C 247.26 56.15 249.15 51.21 247.63 46.33 C 244.92 36.65 237.56 29.22 230.10 22.88 C 222.93 17.42 215.59 12.05 207.57 7.90 C 207.55 15.04 206.58 22.50 202.49 28.55 C 197.54 36.98 187.45 41.65 184.58 51.42 C 182.73 56.22 184.68 61.17 185.85 65.86 C 179.95 66.37 175.22 62.42 171.48 58.38 C 168.93 69.69 176.75 79.34 183.24 87.64 C 182.57 87.76 181.21 88.02 180.53 88.14 C 179.03 86.00 177.42 83.94 175.81 81.89 C 164.43 85.64 153.63 91.62 145.05 100.05 C 136.32 108.87 129.22 119.62 125.89 131.65 C 131.02 130.20 136.31 129.16 141.67 129.27 C 162.57 129.89 181.81 147.92 182.48 169.04 C 182.94 178.59 181.87 188.33 178.12 197.19 C 183.74 197.20 189.37 197.37 194.95 198.12 C 196.34 198.25 197.35 199.33 198.47 200.04 C 195.14 201.81 191.46 200.48 187.99 200.08 C 184.48 199.67 180.93 199.20 177.40 199.41 C 174.58 201.19 172.49 204.04 169.31 205.29 C 163.63 207.92 157.20 206.83 151.25 205.92 C 143.29 204.61 135.14 204.85 127.18 206.08 C 121.75 206.40 116.08 206.14 111.04 203.90 C 107.67 202.45 105.40 199.45 102.59 197.22 C 97.55 196.81 92.74 199.02 88.01 200.45 C 94.00 204.58 99.45 209.60 103.49 215.68 C 104.83 217.14 103.46 218.84 102.88 220.29 C 99.16 217.93 96.39 213.87 91.82 213.09 C 82.90 211.08 74.08 215.84 67.70 221.73 C 77.95 224.80 85.84 232.52 92.20 240.79 C 96.79 246.88 101.08 253.28 103.99 260.36 C 102.99 260.46 102.00 260.56 101.00 260.66 C 89.83 318.38 78.84 376.16 67.88 433.94 C 66.54 441.56 64.59 449.13 64.47 456.91 C 63.20 457.63 61.92 458.35 60.65 459.08 C 60.65 454.78 60.74 450.46 61.52 446.22 C 69.00 406.84 76.50 367.45 84.01 328.07 C 88.86 303.43 92.85 278.62 98.22 254.09 C 91.46 243.73 83.72 233.23 72.40 227.53 C 68.97 226.06 65.21 225.64 61.53 225.29 C 61.35 224.15 60.63 222.72 61.82 221.86 C 69.65 213.78 80.49 207.16 92.17 208.73 C 90.15 207.09 88.20 205.20 85.70 204.32 C 83.50 203.82 81.23 203.94 79.00 203.76 C 79.14 202.51 78.70 200.80 80.18 200.20 C 86.64 196.93 93.77 194.83 101.02 194.37 C 98.13 185.93 96.80 176.95 97.75 168.04 C 98.80 154.11 107.62 141.48 119.55 134.53 C 121.56 133.57 121.67 131.10 122.41 129.27 C 123.80 124.11 126.32 119.39 128.61 114.60 C 129.41 113.44 128.28 112.22 127.84 111.17 C 121.74 100.27 115.61 89.39 109.51 78.50 C 108.07 76.27 111.24 74.64 112.95 73.99 C 120.57 72.16 128.41 74.24 135.78 76.26 C 143.22 78.18 149.69 82.49 155.92 86.83 C 161.33 83.50 167.15 80.88 173.12 78.73 C 170.76 73.40 167.63 68.05 168.08 61.99 C 168.44 57.71 169.48 52.79 173.10 50.06 C 174.65 52.74 174.34 56.20 176.46 58.58 C 177.50 59.96 179.18 60.55 180.70 61.23 C 179.34 54.59 180.97 47.48 185.12 42.12 C 189.30 36.05 196.15 32.29 199.63 25.68 C 203.57 19.23 204.11 11.39 203.10 4.06 M 315.83 70.67 C 305.15 74.49 294.36 78.49 284.87 84.80 C 288.05 87.01 291.25 89.18 294.60 91.13 C 298.43 93.85 301.67 97.24 304.92 100.60 C 308.34 95.20 311.86 89.86 315.23 84.43 C 317.90 79.00 322.22 74.50 324.34 68.81 C 321.43 69.03 318.55 69.62 315.83 70.67 M 113.97 77.94 C 116.02 82.73 118.91 87.09 121.45 91.62 C 123.57 95.26 125.41 99.10 128.13 102.35 C 128.01 105.13 130.50 107.16 131.92 109.33 C 135.55 104.77 139.11 100.13 143.10 95.88 C 145.72 94.25 148.28 92.48 150.49 90.32 C 151.09 89.74 152.29 88.63 150.98 88.03 C 142.95 82.73 133.67 79.19 124.15 77.83 C 120.87 76.54 117.27 77.00 113.97 77.94 M 288.23 134.23 C 278.50 141.31 271.74 152.80 271.89 165.02 C 271.95 174.09 272.27 183.88 277.20 191.81 C 281.28 197.95 289.40 198.91 296.12 197.78 C 301.94 196.50 307.91 196.54 313.82 196.14 C 322.89 196.69 333.00 199.55 341.24 194.26 C 348.22 188.84 350.30 179.50 350.56 171.09 C 351.36 160.55 348.52 149.57 341.51 141.50 C 329.28 125.79 304.15 122.12 288.23 134.23 M 122.57 136.50 C 116.51 139.83 111.27 144.64 107.28 150.29 C 100.57 159.98 99.67 172.47 101.51 183.81 C 102.63 190.30 105.40 197.34 111.57 200.55 C 119.55 204.97 128.90 202.04 137.46 201.65 C 141.63 201.84 145.81 202.12 149.99 202.14 C 153.26 201.16 156.86 200.69 159.82 199.03 C 164.62 198.61 169.49 198.16 174.19 197.10 C 176.58 193.72 177.64 189.60 178.37 185.58 C 180.26 173.86 180.24 160.80 173.40 150.58 C 169.10 144.91 164.01 139.48 157.34 136.65 C 146.61 131.06 133.43 131.58 122.57 136.50 M 155.29 201.21 C 153.92 201.38 152.64 201.90 151.57 202.78 C 158.23 204.19 166.54 204.91 171.75 199.63 C 166.22 199.37 160.72 200.29 155.29 201.21 Z" />
</g>
<g id="#d2d9e1ff">
<path fill="#d2d9e1" opacity="1.00" d=" M 207.57 7.90 C 215.59 12.05 222.93 17.42 230.10 22.88 C 237.56 29.22 244.92 36.65 247.63 46.33 C 249.15 51.21 247.26 56.15 246.93 61.05 C 254.58 60.16 257.84 51.98 260.71 45.87 C 264.45 54.83 265.21 65.05 262.36 74.37 C 261.13 78.82 258.63 82.81 257.69 87.35 C 260.42 85.90 261.67 82.99 263.12 80.43 C 268.38 82.15 273.70 83.80 278.64 86.35 C 294.77 93.85 307.81 107.52 314.95 123.78 C 304.55 123.39 293.76 126.01 285.53 132.58 C 275.25 139.97 268.73 152.33 268.76 165.02 C 268.64 176.39 269.71 188.98 277.76 197.78 C 272.78 196.93 267.73 196.94 262.70 196.98 C 262.70 197.73 262.70 199.21 262.69 199.95 C 277.33 198.83 291.95 201.19 306.05 204.97 C 302.88 203.66 299.59 202.65 296.50 201.13 C 304.12 198.94 312.20 199.00 320.02 199.82 C 323.01 214.60 326.46 229.34 331.33 243.63 C 332.49 247.57 333.46 251.67 335.90 255.07 C 339.08 259.65 340.44 265.14 343.01 270.05 C 345.99 275.50 346.78 281.82 349.75 287.29 C 354.21 296.04 354.73 306.13 358.99 314.94 C 361.78 321.18 362.57 328.04 364.65 334.51 C 365.69 337.86 367.50 340.89 368.83 344.13 C 370.85 349.09 370.12 354.74 372.40 359.63 C 373.74 362.57 376.24 364.75 377.82 367.54 C 378.68 371.01 377.99 374.69 378.69 378.21 C 379.95 384.28 382.80 389.83 385.61 395.30 C 387.46 402.35 387.14 410.27 391.50 416.46 C 393.77 419.53 393.19 423.54 393.92 427.09 C 394.41 430.53 396.80 433.42 396.98 436.93 C 397.13 440.55 397.08 444.18 397.37 447.80 C 400.19 447.96 403.02 447.65 405.74 446.85 C 405.07 440.83 407.64 435.41 409.51 429.89 C 411.18 435.09 412.54 440.38 413.45 445.76 C 413.85 455.29 410.37 464.51 405.60 472.60 C 401.98 478.99 395.54 483.50 388.59 485.61 C 382.71 487.05 377.50 481.91 375.88 476.68 C 375.14 473.13 375.56 469.48 375.75 465.90 C 377.58 462.95 379.63 460.12 381.13 456.98 C 369.64 466.48 362.73 480.53 358.61 494.62 C 355.37 505.23 355.93 516.40 355.45 527.33 C 351.53 523.60 349.44 518.51 347.40 513.61 C 343.77 504.85 341.69 495.58 339.58 486.37 C 339.35 484.85 338.41 483.65 337.33 482.63 C 335.86 496.02 335.97 510.57 328.16 522.19 C 325.51 526.54 320.59 528.49 315.85 529.57 C 311.65 506.66 308.19 483.60 303.17 460.85 C 302.75 459.08 302.25 457.33 301.71 455.61 C 301.50 456.23 301.07 457.48 300.86 458.11 C 300.12 452.28 298.41 446.64 297.39 440.86 C 294.61 425.46 291.23 410.17 286.95 395.11 C 283.82 385.47 280.28 375.81 274.83 367.20 C 270.83 360.70 263.72 355.98 255.99 355.70 C 248.40 355.61 240.60 357.76 234.72 362.71 C 232.07 364.65 229.10 367.96 225.46 366.48 C 220.86 364.16 217.22 360.03 212.07 358.76 C 203.34 356.30 192.76 357.45 186.18 364.18 C 181.06 369.57 180.94 377.40 179.15 384.21 C 174.89 399.95 171.59 415.92 167.71 431.75 C 165.63 441.08 163.74 450.47 160.87 459.59 C 158.35 463.44 157.67 468.07 156.58 472.46 C 152.16 492.22 148.45 512.14 144.77 532.06 C 144.30 532.29 143.36 532.77 142.89 533.00 C 138.78 530.06 135.78 525.90 133.70 521.34 C 129.01 511.18 126.99 500.03 125.89 488.97 C 125.84 487.29 125.10 485.81 124.10 484.52 C 121.53 494.28 121.13 504.63 116.92 513.96 C 114.78 519.13 111.51 523.86 107.02 527.26 C 105.97 515.86 105.81 504.41 105.03 492.99 C 103.80 479.26 98.93 465.09 88.32 455.78 C 88.74 433.58 92.30 411.61 94.63 389.57 C 97.71 366.29 100.54 342.97 103.80 319.71 C 106.18 304.46 107.21 288.67 113.43 274.34 C 116.37 267.16 121.40 260.95 123.44 253.38 C 126.02 245.15 124.60 236.46 124.17 228.04 C 123.92 221.08 123.92 214.12 123.58 207.16 C 124.78 206.79 125.97 206.41 127.18 206.08 C 135.14 204.85 143.29 204.61 151.25 205.92 C 157.20 206.83 163.63 207.92 169.31 205.29 C 172.49 204.04 174.58 201.19 177.40 199.41 C 180.93 199.20 184.48 199.67 187.99 200.08 C 191.46 200.48 195.14 201.81 198.47 200.04 C 197.35 199.33 196.34 198.25 194.95 198.12 C 189.37 197.37 183.74 197.20 178.12 197.19 C 181.87 188.33 182.94 178.59 182.48 169.04 C 181.81 147.92 162.57 129.89 141.67 129.27 C 147.26 117.19 154.46 105.39 164.97 96.97 C 169.60 93.15 175.05 90.51 180.53 88.14 C 181.21 88.02 182.57 87.76 183.24 87.64 C 176.75 79.34 168.93 69.69 171.48 58.38 C 175.22 62.42 179.95 66.37 185.85 65.86 C 184.68 61.17 182.73 56.22 184.58 51.42 C 187.45 41.65 197.54 36.98 202.49 28.55 C 206.58 22.50 207.55 15.04 207.57 7.90 M 207.31 178.24 C 204.38 180.65 205.71 185.77 209.05 187.08 C 213.13 188.75 217.99 188.54 221.56 191.42 C 222.65 192.38 224.34 193.34 223.94 195.08 C 223.41 201.34 222.35 207.57 220.82 213.67 C 219.38 219.68 216.81 225.84 211.54 229.47 C 208.39 231.82 204.20 231.27 200.77 232.90 C 206.00 233.43 211.74 232.40 215.63 228.61 C 222.58 222.31 224.60 212.66 226.65 203.92 C 228.65 206.05 229.12 209.07 230.42 211.62 C 233.95 219.42 239.24 227.13 247.28 230.77 C 250.39 231.93 254.08 233.46 257.25 231.64 C 253.07 231.18 248.68 230.51 245.39 227.63 C 235.21 219.55 231.58 206.13 229.34 193.90 C 231.46 191.53 233.44 188.70 236.64 187.76 C 239.55 186.46 243.38 187.30 245.70 184.78 C 247.40 183.19 248.27 180.41 246.69 178.43 C 243.21 173.95 237.38 172.36 232.00 171.65 C 223.42 170.86 213.82 172.10 207.31 178.24 M 248.68 205.78 C 248.25 206.84 247.90 208.14 249.35 208.55 C 253.88 208.28 258.39 207.50 262.95 207.83 C 276.50 208.06 289.51 213.66 300.16 221.83 C 309.95 229.84 317.01 240.86 320.80 252.89 C 314.94 228.08 292.55 208.35 267.23 205.47 C 261.10 204.80 254.69 204.08 248.68 205.78 M 149.82 222.79 C 143.15 228.94 137.09 236.21 133.99 244.84 C 144.18 222.93 167.83 208.19 192.02 208.97 C 198.26 208.79 204.21 211.04 210.40 211.37 C 210.26 210.64 209.98 209.18 209.84 208.45 C 189.12 202.94 165.56 207.96 149.82 222.79 M 252.19 214.11 C 252.19 214.77 252.20 216.10 252.21 216.76 C 256.00 217.05 259.82 217.06 263.60 217.58 C 272.79 219.13 281.63 224.75 285.58 233.40 C 289.61 240.93 289.85 249.78 288.17 257.99 C 292.08 246.30 289.37 232.25 280.46 223.50 C 273.26 216.12 262.33 212.75 252.19 214.11 M 180.18 220.20 C 173.48 223.70 168.83 230.14 166.09 237.03 C 163.73 243.09 163.98 249.73 164.42 256.10 C 164.94 253.42 164.69 250.68 164.81 247.97 C 164.93 242.52 166.95 237.30 169.65 232.64 C 175.24 223.44 186.30 218.03 196.98 218.79 C 199.97 218.92 202.99 219.56 205.98 218.93 C 205.57 217.82 205.47 216.22 203.90 216.31 C 195.84 214.81 187.29 216.09 180.18 220.20 M 249.53 258.51 C 240.56 265.26 227.76 265.31 218.11 259.91 C 213.61 258.24 211.05 253.83 206.87 251.67 C 207.40 254.44 208.98 256.85 210.87 258.88 C 210.74 260.15 210.59 261.49 211.27 262.66 C 213.88 268.30 217.16 274.01 222.54 277.45 C 226.97 280.39 232.77 280.63 237.66 278.74 C 245.85 276.13 251.24 268.12 252.98 260.01 C 255.11 257.42 256.52 254.26 256.93 250.92 C 253.86 252.81 252.47 256.43 249.53 258.51 Z" />
<path fill="#d2d9e1" opacity="1.00" d=" M 585.86 283.77 C 590.83 284.26 595.53 286.04 600.07 288.05 C 604.30 290.80 609.16 292.53 613.02 295.86 C 615.39 299.47 618.37 302.62 621.02 306.03 C 626.87 314.08 632.49 322.36 636.65 331.44 C 641.22 339.06 644.21 347.52 649.25 354.87 C 650.77 354.87 652.29 354.88 653.83 354.89 C 653.80 354.28 653.75 353.07 653.73 352.46 C 652.22 352.17 650.72 351.89 649.23 351.62 C 649.18 350.96 649.10 349.64 649.06 348.98 C 652.02 348.61 655.13 348.85 657.01 351.48 C 657.32 349.88 657.67 348.29 657.98 346.69 C 659.53 349.59 660.82 352.70 661.21 355.99 C 660.41 358.77 658.82 361.24 657.77 363.92 C 658.92 364.57 660.22 365.96 661.36 364.44 C 666.35 356.84 669.04 348.05 672.72 339.82 C 675.42 348.61 675.85 357.87 675.73 367.00 C 675.35 387.36 670.73 407.29 666.02 427.00 C 661.35 445.32 651.80 462.24 639.41 476.45 C 638.32 477.66 637.25 478.91 635.91 479.84 C 626.08 485.72 616.01 491.38 605.18 495.22 C 593.17 499.33 580.65 501.91 567.99 502.90 C 550.79 505.17 533.40 503.57 516.25 501.67 C 496.95 498.71 477.74 494.85 459.09 489.01 C 448.50 485.77 439.16 477.13 436.90 466.05 C 434.69 457.87 437.98 449.75 440.02 441.91 C 440.45 440.81 441.35 440.02 442.20 439.24 C 451.57 431.25 462.49 425.10 474.24 421.36 C 476.03 423.07 477.67 424.95 478.94 427.09 C 486.34 439.51 498.79 449.15 513.03 452.17 C 514.76 452.39 517.19 453.24 518.27 451.30 C 518.75 449.58 518.12 447.82 517.87 446.12 C 518.11 445.70 518.60 444.84 518.85 444.42 C 521.20 445.47 523.49 446.73 526.01 447.36 C 527.89 447.87 529.82 445.92 529.28 444.05 C 528.92 441.14 528.01 438.13 528.94 435.23 C 536.99 425.39 547.09 417.47 557.93 410.92 C 559.68 409.91 561.64 409.35 563.57 408.76 C 563.90 411.78 564.22 414.81 564.53 417.84 C 573.56 417.51 582.23 412.87 587.80 405.80 C 592.07 400.57 594.58 394.23 597.29 388.12 C 598.24 386.14 598.32 383.93 598.41 381.79 C 601.32 374.68 605.48 367.81 606.50 360.00 L 605.86 359.17 C 603.33 356.50 603.20 352.69 602.72 349.26 C 601.74 340.82 599.40 332.59 596.29 324.71 C 594.43 319.89 591.77 315.44 589.97 310.60 C 595.06 311.58 599.71 314.05 603.72 317.29 C 607.51 320.18 609.94 324.45 613.78 327.30 C 611.94 315.56 606.09 304.62 598.25 295.78 C 594.49 291.39 589.57 288.20 585.86 283.77 Z" />
</g>
<g id="#806763ff">
<path fill="#806763" opacity="1.00" d=" M 315.83 70.67 C 318.55 69.62 321.43 69.03 324.34 68.81 C 322.22 74.50 317.90 79.00 315.23 84.43 C 310.46 84.92 305.28 84.42 301.01 86.97 C 298.79 88.22 296.71 89.70 294.60 91.13 C 291.25 89.18 288.05 87.01 284.87 84.80 C 294.36 78.49 305.15 74.49 315.83 70.67 Z" />
</g>
<g id="#6f5c59ff">
<path fill="#6f5c59" opacity="1.00" d=" M 113.97 77.94 C 117.27 77.00 120.87 76.54 124.15 77.83 C 122.71 78.00 121.28 78.20 119.86 78.42 C 123.50 80.07 127.40 81.20 130.81 83.35 C 128.30 85.99 129.07 89.72 129.02 93.01 C 129.13 96.16 128.62 99.26 128.13 102.35 C 125.41 99.10 123.57 95.26 121.45 91.62 C 118.91 87.09 116.02 82.73 113.97 77.94 Z" />
</g>
<g id="#856863ff">
<path fill="#856863" opacity="1.00" d=" M 119.86 78.42 C 121.28 78.20 122.71 78.00 124.15 77.83 C 133.67 79.19 142.95 82.73 150.98 88.03 C 152.29 88.63 151.09 89.74 150.49 90.32 C 148.28 92.48 145.72 94.25 143.10 95.88 C 140.00 90.81 135.41 86.99 130.81 83.35 C 127.40 81.20 123.50 80.07 119.86 78.42 Z" />
</g>
<g id="#c0c7caff">
<path fill="#c0c7ca" opacity="1.00" d=" M 145.05 100.05 C 153.63 91.62 164.43 85.64 175.81 81.89 C 177.42 83.94 179.03 86.00 180.53 88.14 C 175.05 90.51 169.60 93.15 164.97 96.97 C 154.46 105.39 147.26 117.19 141.67 129.27 C 136.31 129.16 131.02 130.20 125.89 131.65 C 129.22 119.62 136.32 108.87 145.05 100.05 Z" />
</g>
<g id="#624f4aff">
<path fill="#624f4a" opacity="1.00" d=" M 129.02 93.01 C 129.07 89.72 128.30 85.99 130.81 83.35 C 135.41 86.99 140.00 90.81 143.10 95.88 C 139.11 100.13 135.55 104.77 131.92 109.33 C 130.50 107.16 128.01 105.13 128.13 102.35 C 128.62 99.26 129.13 96.16 129.02 93.01 Z" />
</g>
<g id="#6b5957ff">
<path fill="#6b5957" opacity="1.00" d=" M 301.01 86.97 C 305.28 84.42 310.46 84.92 315.23 84.43 C 311.86 89.86 308.34 95.20 304.92 100.60 C 301.67 97.24 298.43 93.85 294.60 91.13 C 296.71 89.70 298.79 88.22 301.01 86.97 Z" />
</g>
<g id="#fefefeff">
<path fill="#fefefe" opacity="1.00" d=" M 288.23 134.23 C 304.15 122.12 329.28 125.79 341.51 141.50 C 348.52 149.57 351.36 160.55 350.56 171.09 C 350.30 179.50 348.22 188.84 341.24 194.26 C 333.00 199.55 322.89 196.69 313.82 196.14 C 318.33 194.39 323.09 192.10 325.66 187.78 C 329.46 181.70 331.55 173.94 329.24 166.94 C 327.70 167.52 326.16 168.13 324.61 168.66 C 320.73 169.35 316.22 168.65 313.79 165.24 C 311.56 162.70 311.81 159.15 311.95 156.01 C 313.63 154.40 314.98 152.49 316.02 150.40 C 308.60 148.83 300.15 148.20 293.47 152.45 C 287.11 156.11 283.39 163.07 281.88 170.05 C 279.81 181.20 287.58 192.38 297.80 196.38 C 297.24 196.85 296.68 197.31 296.12 197.78 C 289.40 198.91 281.28 197.95 277.20 191.81 C 272.27 183.88 271.95 174.09 271.89 165.02 C 271.74 152.80 278.50 141.31 288.23 134.23 Z" />
<path fill="#fefefe" opacity="1.00" d=" M 122.57 136.50 C 133.43 131.58 146.61 131.06 157.34 136.65 C 164.01 139.48 169.10 144.91 173.40 150.58 C 180.24 160.80 180.26 173.86 178.37 185.58 C 177.64 189.60 176.58 193.72 174.19 197.10 C 169.49 198.16 164.62 198.61 159.82 199.03 C 163.08 195.78 166.98 192.77 168.33 188.16 C 171.70 180.60 170.65 171.55 166.17 164.68 C 164.87 166.96 163.64 169.27 162.52 171.65 C 158.67 174.23 153.00 175.17 149.40 171.65 C 145.94 168.85 145.59 164.06 146.78 160.06 C 148.68 158.33 150.41 156.44 152.04 154.47 C 146.87 154.13 141.38 153.51 136.49 155.67 C 131.08 158.09 126.62 162.52 123.97 167.81 C 120.88 174.40 121.31 182.29 124.18 188.87 C 126.92 194.54 132.04 198.66 137.46 201.65 C 128.90 202.04 119.55 204.97 111.57 200.55 C 105.40 197.34 102.63 190.30 101.51 183.81 C 99.67 172.47 100.57 159.98 107.28 150.29 C 111.27 144.64 116.51 139.83 122.57 136.50 Z" />
</g>
<g id="#f8df3aff">
<path fill="#f8df3a" opacity="1.00" d=" M 293.47 152.45 C 300.15 148.20 308.60 148.83 316.02 150.40 C 314.98 152.49 313.63 154.40 311.95 156.01 C 307.39 155.24 302.45 155.03 298.26 157.32 C 291.57 160.71 287.40 168.44 288.33 175.90 C 289.22 184.27 296.57 191.43 305.01 191.94 C 312.54 192.68 320.19 188.18 323.25 181.27 C 325.17 177.35 324.80 172.88 324.61 168.66 C 326.16 168.13 327.70 167.52 329.24 166.94 C 331.55 173.94 329.46 181.70 325.66 187.78 C 323.09 192.10 318.33 194.39 313.82 196.14 C 307.91 196.54 301.94 196.50 296.12 197.78 C 296.68 197.31 297.24 196.85 297.80 196.38 C 287.58 192.38 279.81 181.20 281.88 170.05 C 283.39 163.07 287.11 156.11 293.47 152.45 Z" />
</g>
<g id="#f6df3aff">
<path fill="#f6df3a" opacity="1.00" d=" M 136.49 155.67 C 141.38 153.51 146.87 154.13 152.04 154.47 C 150.41 156.44 148.68 158.33 146.78 160.06 C 142.13 160.41 137.32 161.57 133.79 164.80 C 126.75 170.53 125.43 181.91 130.83 189.16 C 135.89 196.72 146.83 199.14 154.68 194.65 C 162.62 190.44 166.43 179.85 162.52 171.65 C 163.64 169.27 164.87 166.96 166.17 164.68 C 170.65 171.55 171.70 180.60 168.33 188.16 C 166.98 192.77 163.08 195.78 159.82 199.03 C 156.86 200.69 153.26 201.16 149.99 202.14 C 145.81 202.12 141.63 201.84 137.46 201.65 C 132.04 198.66 126.92 194.54 124.18 188.87 C 121.31 182.29 120.88 174.40 123.97 167.81 C 126.62 162.52 131.08 158.09 136.49 155.67 Z" />
</g>
<g id="#32323dff">
<path fill="#32323d" opacity="1.00" d=" M 298.26 157.32 C 302.45 155.03 307.39 155.24 311.95 156.01 C 311.81 159.15 311.56 162.70 313.79 165.24 C 316.22 168.65 320.73 169.35 324.61 168.66 C 324.80 172.88 325.17 177.35 323.25 181.27 C 320.19 188.18 312.54 192.68 305.01 191.94 C 296.57 191.43 289.22 184.27 288.33 175.90 C 287.40 168.44 291.57 160.71 298.26 157.32 Z" />
</g>
<g id="#32323eff">
<path fill="#32323e" opacity="1.00" d=" M 133.79 164.80 C 137.32 161.57 142.13 160.41 146.78 160.06 C 145.59 164.06 145.94 168.85 149.40 171.65 C 153.00 175.17 158.67 174.23 162.52 171.65 C 166.43 179.85 162.62 190.44 154.68 194.65 C 146.83 199.14 135.89 196.72 130.83 189.16 C 125.43 181.91 126.75 170.53 133.79 164.80 Z" />
</g>
<g id="#31323eff">
<path fill="#31323e" opacity="1.00" d=" M 207.31 178.24 C 213.82 172.10 223.42 170.86 232.00 171.65 C 237.38 172.36 243.21 173.95 246.69 178.43 C 248.27 180.41 247.40 183.19 245.70 184.78 C 243.38 187.30 239.55 186.46 236.64 187.76 C 233.44 188.70 231.46 191.53 229.34 193.90 C 231.58 206.13 235.21 219.55 245.39 227.63 C 248.68 230.51 253.07 231.18 257.25 231.64 C 254.08 233.46 250.39 231.93 247.28 230.77 C 239.24 227.13 233.95 219.42 230.42 211.62 C 229.12 209.07 228.65 206.05 226.65 203.92 C 224.60 212.66 222.58 222.31 215.63 228.61 C 211.74 232.40 206.00 233.43 200.77 232.90 C 204.20 231.27 208.39 231.82 211.54 229.47 C 216.81 225.84 219.38 219.68 220.82 213.67 C 222.35 207.57 223.41 201.34 223.94 195.08 C 224.34 193.34 222.65 192.38 221.56 191.42 C 217.99 188.54 213.13 188.75 209.05 187.08 C 205.71 185.77 204.38 180.65 207.31 178.24 Z" />
</g>
<g id="#d8dfe3ff">
<path fill="#d8dfe3" opacity="1.00" d=" M 350.61 187.33 C 353.69 187.49 356.76 187.73 359.83 188.03 C 357.00 191.20 354.35 194.57 352.43 198.38 C 350.65 201.96 348.38 205.61 348.73 209.78 C 349.50 209.81 351.06 209.88 351.83 209.91 C 354.14 206.32 356.37 202.14 360.59 200.52 C 368.36 197.09 377.16 199.57 384.46 203.04 C 373.63 209.84 365.25 219.93 358.91 230.92 C 355.45 236.89 351.96 243.01 350.41 249.79 C 351.55 249.39 352.69 248.97 353.84 248.56 C 357.98 264.23 363.24 279.59 367.84 295.14 C 382.03 339.96 395.52 385.00 409.51 429.89 C 407.64 435.41 405.07 440.83 405.74 446.85 C 403.02 447.65 400.19 447.96 397.37 447.80 C 397.08 444.18 397.13 440.55 396.98 436.93 C 396.80 433.42 394.41 430.53 393.92 427.09 C 393.19 423.54 393.77 419.53 391.50 416.46 C 387.14 410.27 387.46 402.35 385.61 395.30 C 382.80 389.83 379.95 384.28 378.69 378.21 C 377.99 374.69 378.68 371.01 377.82 367.54 C 376.24 364.75 373.74 362.57 372.40 359.63 C 370.12 354.74 370.85 349.09 368.83 344.13 C 367.50 340.89 365.69 337.86 364.65 334.51 C 362.57 328.04 361.78 321.18 358.99 314.94 C 354.73 306.13 354.21 296.04 349.75 287.29 C 346.78 281.82 345.99 275.50 343.01 270.05 C 340.44 265.14 339.08 259.65 335.90 255.07 C 333.46 251.67 332.49 247.57 331.33 243.63 C 326.46 229.34 323.01 214.60 320.02 199.82 C 326.75 200.54 334.02 201.35 340.32 198.29 C 345.15 196.24 348.31 191.86 350.61 187.33 Z" />
</g>
<g id="#bfc7caff">
<path fill="#bfc7ca" opacity="1.00" d=" M 88.01 200.45 C 92.74 199.02 97.55 196.81 102.59 197.22 C 105.40 199.45 107.67 202.45 111.04 203.90 C 116.08 206.14 121.75 206.40 127.18 206.08 C 125.97 206.41 124.78 206.79 123.58 207.16 C 123.92 214.12 123.92 221.08 124.17 228.04 C 124.60 236.46 126.02 245.15 123.44 253.38 C 121.40 260.95 116.37 267.16 113.43 274.34 C 107.21 288.67 106.18 304.46 103.80 319.71 C 100.54 342.97 97.71 366.29 94.63 389.57 C 92.30 411.61 88.74 433.58 88.32 455.78 C 89.05 459.74 92.13 462.66 93.89 466.17 C 99.07 476.01 101.14 487.23 101.42 498.27 C 101.65 506.66 102.32 515.04 102.14 523.44 C 98.17 521.83 94.72 519.26 91.58 516.40 C 74.48 501.74 64.12 479.50 64.47 456.91 C 64.59 449.13 66.54 441.56 67.88 433.94 C 78.84 376.16 89.83 318.38 101.00 260.66 C 102.00 260.56 102.99 260.46 103.99 260.36 C 101.08 253.28 96.79 246.88 92.20 240.79 C 85.84 232.52 77.95 224.80 67.70 221.73 C 74.08 215.84 82.90 211.08 91.82 213.09 C 96.39 213.87 99.16 217.93 102.88 220.29 C 103.46 218.84 104.83 217.14 103.49 215.68 C 99.45 209.60 94.00 204.58 88.01 200.45 Z" />
<path fill="#bfc7ca" opacity="1.00" d=" M 413.45 445.76 C 413.85 447.99 414.21 450.22 414.43 452.48 C 417.15 486.89 393.83 522.44 360.05 531.33 C 359.91 526.22 359.98 521.11 360.01 516.00 C 359.81 498.18 365.98 480.66 375.75 465.90 C 375.56 469.48 375.14 473.13 375.88 476.68 C 377.50 481.91 382.71 487.05 388.59 485.61 C 395.54 483.50 401.98 478.99 405.60 472.60 C 410.37 464.51 413.85 455.29 413.45 445.76 Z" />
</g>
<g id="#fbfdfdff">
<path fill="#fbfdfd" opacity="1.00" d=" M 155.29 201.21 C 160.72 200.29 166.22 199.37 171.75 199.63 C 166.54 204.91 158.23 204.19 151.57 202.78 C 152.64 201.90 153.92 201.38 155.29 201.21 Z" />
</g>
<g id="#30353eff">
<path fill="#30353e" opacity="1.00" d=" M 248.68 205.78 C 254.69 204.08 261.10 204.80 267.23 205.47 C 292.55 208.35 314.94 228.08 320.80 252.89 C 317.01 240.86 309.95 229.84 300.16 221.83 C 289.51 213.66 276.50 208.06 262.95 207.83 C 258.39 207.50 253.88 208.28 249.35 208.55 C 247.90 208.14 248.25 206.84 248.68 205.78 Z" />
</g>
<g id="#2d343cff">
<path fill="#2d343c" opacity="1.00" d=" M 149.82 222.79 C 165.56 207.96 189.12 202.94 209.84 208.45 C 209.98 209.18 210.26 210.64 210.40 211.37 C 204.21 211.04 198.26 208.79 192.02 208.97 C 167.83 208.19 144.18 222.93 133.99 244.84 C 137.09 236.21 143.15 228.94 149.82 222.79 Z" />
</g>
<g id="#2e333cff">
<path fill="#2e333c" opacity="1.00" d=" M 252.19 214.11 C 262.33 212.75 273.26 216.12 280.46 223.50 C 289.37 232.25 292.08 246.30 288.17 257.99 C 289.85 249.78 289.61 240.93 285.58 233.40 C 281.63 224.75 272.79 219.13 263.60 217.58 C 259.82 217.06 256.00 217.05 252.21 216.76 C 252.20 216.10 252.19 214.77 252.19 214.11 Z" />
</g>
<g id="#2f363eff">
<path fill="#2f363e" opacity="1.00" d=" M 180.18 220.20 C 187.29 216.09 195.84 214.81 203.90 216.31 C 205.47 216.22 205.57 217.82 205.98 218.93 C 202.99 219.56 199.97 218.92 196.98 218.79 C 186.30 218.03 175.24 223.44 169.65 232.64 C 166.95 237.30 164.93 242.52 164.81 247.97 C 164.69 250.68 164.94 253.42 164.42 256.10 C 163.98 249.73 163.73 243.09 166.09 237.03 C 168.83 230.14 173.48 223.70 180.18 220.20 Z" />
</g>
<g id="#31333eff">
<path fill="#31333e" opacity="1.00" d=" M 249.53 258.51 C 252.47 256.43 253.86 252.81 256.93 250.92 C 256.52 254.26 255.11 257.42 252.98 260.01 C 247.36 266.16 238.78 269.67 230.45 268.46 C 222.97 267.94 216.00 264.27 210.87 258.88 C 208.98 256.85 207.40 254.44 206.87 251.67 C 211.05 253.83 213.61 258.24 218.11 259.91 C 227.76 265.31 240.56 265.26 249.53 258.51 Z" />
</g>
<g id="#34323aff">
<path fill="#34323a" opacity="1.00" d=" M 535.61 258.78 C 561.97 252.84 590.48 258.99 612.56 274.39 C 626.81 285.56 638.29 299.92 647.62 315.36 C 653.97 326.71 659.86 338.43 663.71 350.89 C 666.92 344.76 668.57 338.03 670.48 331.43 C 670.74 329.85 673.20 329.92 673.70 331.25 C 676.38 336.47 677.64 342.29 678.66 348.03 C 681.27 368.20 678.65 388.65 674.31 408.39 C 671.52 421.01 669.16 433.87 663.68 445.68 C 645.03 488.62 602.55 518.94 556.81 526.53 C 535.81 529.74 514.35 529.54 493.31 526.78 C 486.60 525.74 479.95 524.37 473.27 523.19 C 471.55 524.48 470.35 526.42 468.37 527.38 C 465.52 528.95 462.16 528.97 459.00 528.98 C 433.33 528.45 407.65 528.06 381.97 527.55 C 378.53 527.19 375.67 529.35 372.74 530.78 C 369.08 532.73 365.10 533.92 361.25 535.41 C 360.81 536.98 362.38 537.75 363.54 538.37 C 366.75 539.51 370.76 538.99 373.27 541.73 C 377.34 545.51 377.75 551.83 375.95 556.81 C 374.60 560.54 370.76 562.70 366.99 563.14 C 356.65 563.64 346.31 563.97 335.97 564.17 C 323.16 563.86 313.14 551.58 313.38 539.13 C 258.23 538.85 203.06 539.02 147.90 539.04 C 147.05 543.28 146.60 547.68 144.78 551.65 C 141.17 560.13 132.19 565.72 123.08 565.98 C 113.39 565.88 103.72 565.05 94.05 564.52 C 89.18 564.38 84.35 560.76 83.48 555.84 C 82.54 551.65 83.16 546.58 86.87 543.89 C 89.80 541.22 93.85 541.00 97.54 540.30 C 101.95 538.66 102.91 533.12 102.47 528.98 C 100.60 526.78 97.54 527.51 95.02 527.45 C 69.35 528.25 43.67 528.31 18.00 528.99 C 13.95 529.05 9.40 528.65 6.41 525.59 C 3.14 522.23 1.38 516.88 3.57 512.48 C 5.68 508.65 9.89 506.70 13.42 504.42 C 29.59 495.36 47.02 488.79 64.68 483.29 C 62.07 475.49 60.75 467.29 60.65 459.08 C 61.92 458.35 63.20 457.63 64.47 456.91 C 64.12 479.50 74.48 501.74 91.58 516.40 C 94.72 519.26 98.17 521.83 102.14 523.44 C 102.32 515.04 101.65 506.66 101.42 498.27 C 101.14 487.23 99.07 476.01 93.89 466.17 C 92.13 462.66 89.05 459.74 88.32 455.78 C 98.93 465.09 103.80 479.26 105.03 492.99 C 105.81 504.41 105.97 515.86 107.02 527.26 C 106.90 532.31 106.70 538.09 102.96 541.94 C 99.51 545.38 94.10 544.64 90.07 546.99 C 87.11 548.76 87.25 552.87 88.10 555.78 C 88.79 558.27 91.42 559.08 93.51 560.05 C 94.88 556.18 95.81 551.83 98.88 548.87 C 100.77 546.98 103.50 546.53 105.98 545.90 C 103.89 547.81 101.52 549.47 99.80 551.76 C 98.18 554.18 98.20 557.23 97.80 560.02 C 100.93 560.42 104.08 560.63 107.23 560.51 C 108.62 556.73 109.66 552.54 112.63 549.64 C 114.60 547.65 117.51 547.40 120.14 547.10 C 118.11 548.75 115.80 550.06 113.88 551.85 C 111.82 554.37 111.57 557.77 110.94 560.85 C 119.03 561.53 128.36 562.75 135.06 557.07 C 142.77 551.18 142.58 540.64 144.77 532.06 C 148.45 512.14 152.16 492.22 156.58 472.46 C 157.67 468.07 158.35 463.44 160.87 459.59 C 160.80 467.06 159.12 474.38 158.33 481.79 C 155.17 499.51 151.81 517.21 148.71 534.95 C 203.26 535.05 257.81 535.01 312.37 534.97 C 309.40 513.88 305.43 492.93 302.59 471.81 C 302.08 467.23 301.48 462.67 300.86 458.11 C 301.07 457.48 301.50 456.23 301.71 455.61 C 302.25 457.33 302.75 459.08 303.17 460.85 C 308.19 483.60 311.65 506.66 315.85 529.57 C 316.80 534.83 317.24 540.20 318.70 545.37 C 320.73 552.80 327.46 558.90 335.20 559.67 C 338.49 560.03 341.81 559.83 345.12 559.76 C 345.28 556.21 345.38 552.07 342.55 549.45 C 340.34 547.86 337.78 546.81 335.71 545.02 C 338.70 545.23 341.88 545.72 344.18 547.83 C 347.57 550.52 348.31 555.05 349.39 558.99 C 353.34 559.35 357.30 559.18 361.25 558.83 C 361.36 555.48 361.32 551.71 358.92 549.09 C 356.78 547.09 354.14 545.74 351.81 543.99 C 354.52 544.31 357.55 544.37 359.67 546.34 C 363.49 549.42 364.50 554.46 365.61 558.97 C 367.58 558.36 370.01 558.11 371.18 556.15 C 373.23 552.91 372.80 548.37 370.56 545.35 C 366.92 542.57 361.11 543.75 358.28 539.67 C 355.39 536.24 355.27 531.58 355.45 527.33 C 355.93 516.40 355.37 505.23 358.61 494.62 C 362.73 480.53 369.64 466.48 381.13 456.98 C 379.63 460.12 377.58 462.95 375.75 465.90 C 365.98 480.66 359.81 498.18 360.01 516.00 C 359.98 521.11 359.91 526.22 360.05 531.33 C 393.83 522.44 417.15 486.89 414.43 452.48 C 415.69 452.75 416.96 453.03 418.22 453.31 C 418.40 454.34 418.59 455.38 418.80 456.42 C 421.61 454.03 423.81 451.04 426.40 448.43 C 438.66 435.79 453.08 424.82 469.76 418.79 C 472.65 417.81 475.61 417.06 478.62 416.55 C 470.98 409.88 465.08 400.85 463.28 390.77 C 459.24 371.33 464.37 351.00 473.89 333.92 C 477.92 326.31 483.60 319.77 488.17 312.51 C 479.89 315.48 472.66 320.63 465.36 325.39 C 464.23 326.39 462.95 325.38 461.83 325.01 C 466.94 310.47 475.02 296.87 486.01 286.00 C 499.37 272.26 517.03 263.09 535.61 258.78 M 496.84 281.74 C 496.10 281.95 495.41 282.27 494.79 282.71 C 485.04 291.50 476.47 301.83 470.87 313.78 C 470.51 314.84 470.20 315.91 469.95 317.01 C 478.54 312.97 486.63 307.06 496.20 305.71 C 496.07 307.27 496.31 309.03 495.20 310.32 C 490.70 316.73 485.75 322.82 481.26 329.25 C 472.39 343.21 466.07 359.29 465.92 376.01 C 465.73 387.36 468.25 399.32 475.94 408.06 C 489.03 423.15 506.53 433.65 524.22 442.50 C 524.37 440.81 524.48 439.12 524.60 437.43 C 525.36 426.13 531.59 415.30 541.21 409.24 C 548.65 403.87 557.79 400.97 564.25 394.26 C 567.15 391.56 568.85 387.92 570.42 384.35 C 571.08 384.19 572.39 383.88 573.05 383.73 C 575.02 388.98 572.51 394.59 572.98 400.03 C 583.52 394.26 591.85 384.93 597.40 374.36 C 600.00 369.52 601.12 364.09 603.14 359.01 C 603.82 359.05 605.18 359.13 605.86 359.17 L 606.50 360.00 C 605.48 367.81 601.32 374.68 598.41 381.79 C 593.88 386.80 590.11 392.53 584.79 396.79 C 580.13 400.69 575.05 404.68 569.01 406.03 C 568.33 402.61 568.79 399.13 568.93 395.69 C 565.10 398.62 561.58 401.98 557.36 404.35 C 549.72 408.80 541.21 412.45 535.50 419.46 C 532.21 424.14 529.67 429.51 528.94 435.23 C 528.01 438.13 528.92 441.14 529.28 444.05 C 529.82 445.92 527.89 447.87 526.01 447.36 C 523.49 446.73 521.20 445.47 518.85 444.42 C 505.76 437.53 492.95 429.76 481.88 419.89 C 479.29 420.17 476.75 420.70 474.24 421.36 C 462.49 425.10 451.57 431.25 442.20 439.24 C 441.35 440.02 440.45 440.81 440.02 441.91 C 436.86 443.22 434.69 445.96 432.27 448.24 C 427.33 453.27 422.24 458.34 418.59 464.42 C 417.63 471.20 416.24 477.91 414.11 484.44 C 429.05 488.90 443.70 494.45 457.73 501.26 C 462.69 503.78 467.85 506.21 471.94 510.08 C 474.51 512.42 474.36 516.19 474.72 519.38 C 494.16 523.62 514.18 525.73 534.08 524.58 C 565.31 524.29 596.36 513.19 620.86 493.84 C 626.12 489.46 631.72 485.32 635.91 479.84 C 637.25 478.91 638.32 477.66 639.41 476.45 C 651.80 462.24 661.35 445.32 666.02 427.00 C 670.73 407.29 675.35 387.36 675.73 367.00 C 675.85 357.87 675.42 348.61 672.72 339.82 C 669.04 348.05 666.35 356.84 661.36 364.44 C 660.22 365.96 658.92 364.57 657.77 363.92 C 658.82 361.24 660.41 358.77 661.21 355.99 C 660.82 352.70 659.53 349.59 657.98 346.69 C 655.66 339.02 651.92 331.82 648.28 324.70 C 638.10 305.88 624.86 288.29 607.46 275.59 C 606.20 274.76 604.84 274.11 603.49 273.49 C 603.22 272.49 601.85 272.35 601.13 271.78 C 591.65 267.13 581.64 263.41 571.16 261.88 C 545.07 257.23 517.25 265.01 496.84 281.74 M 13.79 508.78 C 10.84 510.69 6.65 512.42 6.51 516.50 C 6.25 520.72 9.91 523.91 13.66 525.03 C 13.90 521.07 13.06 516.31 16.19 513.23 C 18.18 510.99 21.22 510.35 24.07 510.13 C 22.49 512.64 18.74 512.59 17.49 515.43 C 15.85 518.44 17.20 521.84 18.25 524.80 C 20.70 524.86 23.15 524.86 25.59 524.80 C 25.33 521.28 24.96 517.28 27.50 514.42 C 30.29 511.50 34.36 509.93 38.37 509.85 C 35.46 512.55 30.78 513.32 29.15 517.30 C 27.89 519.73 29.41 522.32 30.15 524.66 C 40.08 524.62 50.03 524.89 59.95 524.20 C 70.78 523.96 81.63 523.97 92.45 523.46 C 92.47 523.17 92.50 522.60 92.51 522.31 C 90.43 520.10 87.92 518.35 85.72 516.27 C 77.01 508.18 70.80 497.84 65.79 487.16 C 47.78 492.53 30.21 499.62 13.79 508.78 M 412.94 488.10 C 409.97 492.59 408.23 497.77 405.13 502.18 C 401.51 507.42 397.62 512.54 392.87 516.82 C 390.45 518.98 387.92 521.03 385.87 523.56 C 399.57 524.30 413.30 523.70 426.99 524.55 C 433.91 524.72 440.84 524.62 447.77 524.67 C 448.33 521.73 449.56 518.24 447.37 515.67 C 445.40 512.38 441.07 512.06 438.82 509.13 C 443.39 509.37 447.95 511.55 450.64 515.32 C 452.38 518.22 451.85 521.78 452.09 525.01 C 454.33 524.92 456.57 524.82 458.81 524.72 C 459.63 522.13 461.15 519.42 460.39 516.64 C 459.21 513.64 456.20 512.02 453.97 509.89 C 456.92 508.90 459.51 511.66 461.45 513.54 C 464.47 516.61 463.69 521.10 463.40 524.97 C 466.85 523.97 470.41 521.56 470.62 517.63 C 471.37 512.77 466.08 510.45 462.78 508.18 C 447.04 499.54 430.03 493.49 412.94 488.10 Z" />
</g>
<g id="#b8bec3ff">
<path fill="#b8bec3" opacity="1.00" d=" M 210.87 258.88 C 216.00 264.27 222.97 267.94 230.45 268.46 C 238.78 269.67 247.36 266.16 252.98 260.01 C 251.24 268.12 245.85 276.13 237.66 278.74 C 232.77 280.63 226.97 280.39 222.54 277.45 C 217.16 274.01 213.88 268.30 211.27 262.66 C 210.59 261.49 210.74 260.15 210.87 258.88 Z" />
</g>
<g id="#c1afadff">
<path fill="#c1afad" opacity="1.00" d=" M 496.84 281.74 C 517.25 265.01 545.07 257.23 571.16 261.88 C 581.64 263.41 591.65 267.13 601.13 271.78 C 601.85 272.35 603.22 272.49 603.49 273.49 C 603.69 274.47 603.89 275.45 604.08 276.44 C 600.62 277.65 596.93 277.33 593.34 277.14 C 589.76 276.93 586.21 277.45 582.69 277.99 C 561.04 268.87 535.92 266.25 513.60 274.54 C 507.74 276.32 502.74 280.08 496.84 281.74 Z" />
</g>
<g id="#886762ff">
<path fill="#886762" opacity="1.00" d=" M 513.60 274.54 C 535.92 266.25 561.04 268.87 582.69 277.99 C 588.60 281.10 595.23 283.23 600.07 288.05 C 595.53 286.04 590.83 284.26 585.86 283.77 C 589.57 288.20 594.49 291.39 598.25 295.78 C 606.09 304.62 611.94 315.56 613.78 327.30 C 609.94 324.45 607.51 320.18 603.72 317.29 C 599.71 314.05 595.06 311.58 589.97 310.60 C 591.77 315.44 594.43 319.89 596.29 324.71 C 599.40 332.59 601.74 340.82 602.72 349.26 C 603.20 352.69 603.33 356.50 605.86 359.17 C 605.18 359.13 603.82 359.05 603.14 359.01 C 601.12 364.09 600.00 369.52 597.40 374.36 C 591.85 384.93 583.52 394.26 572.98 400.03 C 572.51 394.59 575.02 388.98 573.05 383.73 C 572.39 383.88 571.08 384.19 570.42 384.35 C 568.85 387.92 567.15 391.56 564.25 394.26 C 557.79 400.97 548.65 403.87 541.21 409.24 C 531.59 415.30 525.36 426.13 524.60 437.43 C 524.48 439.12 524.37 440.81 524.22 442.50 C 506.53 433.65 489.03 423.15 475.94 408.06 C 468.25 399.32 465.73 387.36 465.92 376.01 C 466.07 359.29 472.39 343.21 481.26 329.25 C 485.75 322.82 490.70 316.73 495.20 310.32 C 496.31 309.03 496.07 307.27 496.20 305.71 C 486.63 307.06 478.54 312.97 469.95 317.01 C 470.20 315.91 470.51 314.84 470.87 313.78 C 476.47 301.83 485.04 291.50 494.79 282.71 C 495.41 282.27 496.10 281.95 496.84 281.74 C 502.74 280.08 507.74 276.32 513.60 274.54 Z" />
<path fill="#886762" opacity="1.00" d=" M 337.33 482.63 C 338.41 483.65 339.35 484.85 339.58 486.37 C 341.69 495.58 343.77 504.85 347.40 513.61 C 349.44 518.51 351.53 523.60 355.45 527.33 C 355.27 531.58 355.39 536.24 358.28 539.67 C 361.11 543.75 366.92 542.57 370.56 545.35 C 372.80 548.37 373.23 552.91 371.18 556.15 C 370.01 558.11 367.58 558.36 365.61 558.97 C 364.50 554.46 363.49 549.42 359.67 546.34 C 357.55 544.37 354.52 544.31 351.81 543.99 C 354.14 545.74 356.78 547.09 358.92 549.09 C 361.32 551.71 361.36 555.48 361.25 558.83 C 357.30 559.18 353.34 559.35 349.39 558.99 C 348.31 555.05 347.57 550.52 344.18 547.83 C 341.88 545.72 338.70 545.23 335.71 545.02 C 337.78 546.81 340.34 547.86 342.55 549.45 C 345.38 552.07 345.28 556.21 345.12 559.76 C 341.81 559.83 338.49 560.03 335.20 559.67 C 327.46 558.90 320.73 552.80 318.70 545.37 C 317.24 540.20 316.80 534.83 315.85 529.57 C 320.59 528.49 325.51 526.54 328.16 522.19 C 335.97 510.57 335.86 496.02 337.33 482.63 Z" />
</g>
<g id="#dce2e6ff">
<path fill="#dce2e6" opacity="1.00" d=" M 604.08 276.44 C 603.89 275.45 603.69 274.47 603.49 273.49 C 604.84 274.11 606.20 274.76 607.46 275.59 C 624.86 288.29 638.10 305.88 648.28 324.70 C 651.92 331.82 655.66 339.02 657.98 346.69 C 657.67 348.29 657.32 349.88 657.01 351.48 C 655.13 348.85 652.02 348.61 649.06 348.98 C 649.10 349.64 649.18 350.96 649.23 351.62 C 650.72 351.89 652.22 352.17 653.73 352.46 C 653.75 353.07 653.80 354.28 653.83 354.89 C 652.29 354.88 650.77 354.87 649.25 354.87 C 644.21 347.52 641.22 339.06 636.65 331.44 C 632.49 322.36 626.87 314.08 621.02 306.03 C 618.37 302.62 615.39 299.47 613.02 295.86 C 615.31 297.27 617.79 298.35 620.31 299.30 C 618.71 293.65 615.03 289.00 611.69 284.30 C 609.55 281.32 606.93 278.73 604.08 276.44 Z" />
</g>
<g id="#b9a5a2ff">
<path fill="#b9a5a2" opacity="1.00" d=" M 593.34 277.14 C 596.93 277.33 600.62 277.65 604.08 276.44 C 606.93 278.73 609.55 281.32 611.69 284.30 C 615.03 289.00 618.71 293.65 620.31 299.30 C 617.79 298.35 615.31 297.27 613.02 295.86 C 609.16 292.53 604.30 290.80 600.07 288.05 C 595.23 283.23 588.60 281.10 582.69 277.99 C 586.21 277.45 589.76 276.93 593.34 277.14 Z" />
</g>
<g id="#f7ecdaff">
<path fill="#f7ecda" opacity="1.00" d=" M 234.72 362.71 C 240.60 357.76 248.40 355.61 255.99 355.70 C 263.72 355.98 270.83 360.70 274.83 367.20 C 280.28 375.81 283.82 385.47 286.95 395.11 C 291.23 410.17 294.61 425.46 297.39 440.86 C 298.41 446.64 300.12 452.28 300.86 458.11 C 301.48 462.67 302.08 467.23 302.59 471.81 C 301.38 486.04 294.27 500.20 282.14 508.14 C 275.25 512.56 267.75 516.38 259.59 517.68 C 239.26 521.17 218.47 521.59 197.94 519.82 C 191.00 519.13 183.47 519.53 177.35 515.64 C 170.41 511.31 164.55 504.80 162.10 496.89 C 160.57 491.93 159.55 486.83 158.33 481.79 C 159.12 474.38 160.80 467.06 160.87 459.59 C 163.74 450.47 165.63 441.08 167.71 431.75 C 171.59 415.92 174.89 399.95 179.15 384.21 C 180.94 377.40 181.06 369.57 186.18 364.18 C 192.76 357.45 203.34 356.30 212.07 358.76 C 217.22 360.03 220.86 364.16 225.46 366.48 C 229.10 367.96 232.07 364.65 234.72 362.71 Z" />
</g>
<g id="#b7bfc3ff">
<path fill="#b7bfc3" opacity="1.00" d=" M 584.79 396.79 C 590.11 392.53 593.88 386.80 598.41 381.79 C 598.32 383.93 598.24 386.14 597.29 388.12 C 594.58 394.23 592.07 400.57 587.80 405.80 C 582.23 412.87 573.56 417.51 564.53 417.84 C 564.22 414.81 563.90 411.78 563.57 408.76 C 561.64 409.35 559.68 409.91 557.93 410.92 C 547.09 417.47 536.99 425.39 528.94 435.23 C 529.67 429.51 532.21 424.14 535.50 419.46 C 541.21 412.45 549.72 408.80 557.36 404.35 C 561.58 401.98 565.10 398.62 568.93 395.69 C 568.79 399.13 568.33 402.61 569.01 406.03 C 575.05 404.68 580.13 400.69 584.79 396.79 Z" />
</g>
<g id="#b7bfc2ff">
<path fill="#b7bfc2" opacity="1.00" d=" M 474.24 421.36 C 476.75 420.70 479.29 420.17 481.88 419.89 C 492.95 429.76 505.76 437.53 518.85 444.42 C 518.60 444.84 518.11 445.70 517.87 446.12 C 518.12 447.82 518.75 449.58 518.27 451.30 C 517.19 453.24 514.76 452.39 513.03 452.17 C 498.79 449.15 486.34 439.51 478.94 427.09 C 477.67 424.95 476.03 423.07 474.24 421.36 Z" />
</g>
<g id="#bcc4c7ff">
<path fill="#bcc4c7" opacity="1.00" d=" M 432.27 448.24 C 434.69 445.96 436.86 443.22 440.02 441.91 C 437.98 449.75 434.69 457.87 436.90 466.05 C 439.16 477.13 448.50 485.77 459.09 489.01 C 477.74 494.85 496.95 498.71 516.25 501.67 C 533.40 503.57 550.79 505.17 567.99 502.90 C 580.65 501.91 593.17 499.33 605.18 495.22 C 616.01 491.38 626.08 485.72 635.91 479.84 C 631.72 485.32 626.12 489.46 620.86 493.84 C 596.36 513.19 565.31 524.29 534.08 524.58 C 514.18 525.73 494.16 523.62 474.72 519.38 C 474.36 516.19 474.51 512.42 471.94 510.08 C 467.85 506.21 462.69 503.78 457.73 501.26 C 443.70 494.45 429.05 488.90 414.11 484.44 C 416.24 477.91 417.63 471.20 418.59 464.42 C 422.24 458.34 427.33 453.27 432.27 448.24 Z" />
</g>
<g id="#ded5c6ff">
<path fill="#ded5c6" opacity="1.00" d=" M 302.59 471.81 C 305.43 492.93 309.40 513.88 312.37 534.97 C 257.81 535.01 203.26 535.05 148.71 534.95 C 151.81 517.21 155.17 499.51 158.33 481.79 C 159.55 486.83 160.57 491.93 162.10 496.89 C 164.55 504.80 170.41 511.31 177.35 515.64 C 183.47 519.53 191.00 519.13 197.94 519.82 C 218.47 521.59 239.26 521.17 259.59 517.68 C 267.75 516.38 275.25 512.56 282.14 508.14 C 294.27 500.20 301.38 486.04 302.59 471.81 Z" />
</g>
<g id="#876762ff">
<path fill="#876762" opacity="1.00" d=" M 124.10 484.52 C 125.10 485.81 125.84 487.29 125.89 488.97 C 126.99 500.03 129.01 511.18 133.70 521.34 C 135.78 525.90 138.78 530.06 142.89 533.00 C 143.36 532.77 144.30 532.29 144.77 532.06 C 142.58 540.64 142.77 551.18 135.06 557.07 C 128.36 562.75 119.03 561.53 110.94 560.85 C 111.57 557.77 111.82 554.37 113.88 551.85 C 115.80 550.06 118.11 548.75 120.14 547.10 C 117.51 547.40 114.60 547.65 112.63 549.64 C 109.66 552.54 108.62 556.73 107.23 560.51 C 104.08 560.63 100.93 560.42 97.80 560.02 C 98.20 557.23 98.18 554.18 99.80 551.76 C 101.52 549.47 103.89 547.81 105.98 545.90 C 103.50 546.53 100.77 546.98 98.88 548.87 C 95.81 551.83 94.88 556.18 93.51 560.05 C 91.42 559.08 88.79 558.27 88.10 555.78 C 87.25 552.87 87.11 548.76 90.07 546.99 C 94.10 544.64 99.51 545.38 102.96 541.94 C 106.70 538.09 106.90 532.31 107.02 527.26 C 111.51 523.86 114.78 519.13 116.92 513.96 C 121.13 504.63 121.53 494.28 124.10 484.52 Z" />
</g>
<g id="#866865ff">
<path fill="#866865" opacity="1.00" d=" M 13.79 508.78 C 30.21 499.62 47.78 492.53 65.79 487.16 C 70.80 497.84 77.01 508.18 85.72 516.27 C 87.92 518.35 90.43 520.10 92.51 522.31 C 92.50 522.60 92.47 523.17 92.45 523.46 C 81.63 523.97 70.78 523.96 59.95 524.20 C 50.03 524.89 40.08 524.62 30.15 524.66 C 29.41 522.32 27.89 519.73 29.15 517.30 C 30.78 513.32 35.46 512.55 38.37 509.85 C 34.36 509.93 30.29 511.50 27.50 514.42 C 24.96 517.28 25.33 521.28 25.59 524.80 C 23.15 524.86 20.70 524.86 18.25 524.80 C 17.20 521.84 15.85 518.44 17.49 515.43 C 18.74 512.59 22.49 512.64 24.07 510.13 C 21.22 510.35 18.18 510.99 16.19 513.23 C 13.06 516.31 13.90 521.07 13.66 525.03 C 9.91 523.91 6.25 520.72 6.51 516.50 C 6.65 512.42 10.84 510.69 13.79 508.78 Z" />
<path fill="#866865" opacity="1.00" d=" M 412.94 488.10 C 430.03 493.49 447.04 499.54 462.78 508.18 C 466.08 510.45 471.37 512.77 470.62 517.63 C 470.41 521.56 466.85 523.97 463.40 524.97 C 463.69 521.10 464.47 516.61 461.45 513.54 C 459.51 511.66 456.92 508.90 453.97 509.89 C 456.20 512.02 459.21 513.64 460.39 516.64 C 461.15 519.42 459.63 522.13 458.81 524.72 C 456.57 524.82 454.33 524.92 452.09 525.01 C 451.85 521.78 452.38 518.22 450.64 515.32 C 447.95 511.55 443.39 509.37 438.82 509.13 C 441.07 512.06 445.40 512.38 447.37 515.67 C 449.56 518.24 448.33 521.73 447.77 524.67 C 440.84 524.62 433.91 524.72 426.99 524.55 C 413.30 523.70 399.57 524.30 385.87 523.56 C 387.92 521.03 390.45 518.98 392.87 516.82 C 397.62 512.54 401.51 507.42 405.13 502.18 C 408.23 497.77 409.97 492.59 412.94 488.10 Z" />
</g>
</svg>
